:FULLY-SPECIFIED
:FORCE-ALL-JOINTS-BE-3DOF
:DEGREES
170
root 6.49406 16.093 -25.6573 3.84781 29.1613 1.3923
lfemur -25.8309 30.5326 -15.8292
ltibia 41.8184 0 0
lfoot -8.96924 8.18272 0
ltoes 9.33037 0 0
rfemur -20.2892 -3.60316 -5.12186
rtibia 59.0718 0 0
rfoot 6.31868 -25.926 0
rtoes 42.4098 0 0
lowerback 1.24664 -4.72824 -1.25206
upperback 0.0440062 -6.33463 -2.60665
thorax -0.789164 -3.16285 -1.83832
lowerneck -9.49516 -7.40703 -1.3834
upperneck 1.79794 -9.96964 5.32221
head 2.59335 -4.79907 1.41916
lclavicle -7.06893e-14 3.18055e-15 0
lhumerus -50.029 -41.6319 115.531
lradius 52.2433 0 0
lwrist 15.2625 0 0
lhand 37.4096 28.4091 0
lfingers 7.12502 0 0
lthumb 60.2129 41.9454 0
rclavicle -7.06893e-14 3.18055e-15 0
rhumerus -48.9468 -11.8932 -81.095
rradius 89.9031 0 0
rwrist -4.04448 0 0
rhand -40.0997 -49.3864 0
rfingers 7.12502 0 0
rthumb -13.0588 -438.819 0
171
root 6.42821 16.0943 -25.6331 3.95981 28.3122 1.36819
lfemur -25.2269 28.9059 -14.1189
ltibia 41.539 0 0
lfoot -10.1395 5.27835 0
ltoes 5.31794 0 0
rfemur -19.5174 -3.85978 -5.1668
rtibia 56.8405 0 0
rfoot 3.99758 -26.0142 0
rtoes 42.4751 0 0
lowerback 0.915179 -4.40883 -1.08751
upperback 0.0274674 -5.89948 -2.89508
thorax -0.643286 -2.9459 -2.25496
lowerneck -9.5803 -7.38935 -1.04144
upperneck 1.91156 -9.99436 5.34215
head 2.62877 -4.80321 1.36185
lclavicle -4.26819e-14 3.18055e-15 0
lhumerus -50.4856 -41.8773 115.562
lradius 52.2089 0 0
lwrist 15.2099 0 0
lhand 37.7142 28.3712 0
lfingers 7.12502 0 0
lthumb 60.4708 41.6163 0
rclavicle -4.26819e-14 3.18055e-15 0
rhumerus -49.4424 -8.98315 -82.5781
rradius 90.6434 0 0
rwrist -3.59963 0 0
rhand -36.9572 -45.6601 0
rfingers 7.12502 0 0
rthumb -10.0259 -435.174 0
172
root 6.36237 16.0956 -25.609 4.07181 27.4631 1.34408
lfemur -24.6229 27.2791 -12.4087
ltibia 41.2597 0 0
lfoot -11.3097 2.37397 0
ltoes 1.30551 0 0
rfemur -18.7456 -4.1164 -5.21173
rtibia 54.6092 0 0
rfoot 1.67648 -26.1023 0
rtoes 42.5403 0 0
lowerback 0.583713 -4.08943 -0.922966
upperback 0.0109286 -5.46433 -3.18352
thorax -0.497408 -2.72894 -2.67159
lowerneck -9.66544 -7.37166 -0.699489
upperneck 2.02517 -10.0191 5.36209
head 2.6642 -4.80736 1.30455
lclavicle -1.46746e-14 3.18055e-15 0
lhumerus -50.9421 -42.1227 115.594
lradius 52.1744 0 0
lwrist 15.1572 0 0
lhand 38.0189 28.3333 0
lfingers 7.12502 0 0
lthumb 60.7287 41.2872 0
rclavicle -1.46746e-14 3.18055e-15 0
rhumerus -49.9381 -6.07308 -84.0613
rradius 91.3837 0 0
rwrist -3.15478 0 0
rhand -33.8146 -41.9338 0
rfingers 7.12502 0 0
rthumb -6.99304 -431.528 0
173
root 6.29653 16.0968 -25.5848 4.1838 26.6141 1.31998
lfemur -24.019 25.6523 -10.6984
ltibia 40.9804 0 0
lfoot -12.4799 -0.530403 0
ltoes -2.70691 0 0
rfemur -17.9739 -4.37302 -5.25666
rtibia 52.3778 0 0
rfoot -0.644614 -26.1905 0
rtoes 42.6056 0 0
lowerback 0.252248 -3.77003 -0.758417
upperback -0.00561026 -5.02918 -3.47196
thorax -0.35153 -2.51198 -3.08823
lowerneck -9.75058 -7.35398 -0.357535
upperneck 2.13879 -10.0438 5.38204
head 2.69963 -4.81151 1.24725
lclavicle 1.33328e-14 3.18055e-15 0
lhumerus -51.3987 -42.3682 115.626
lradius 52.1399 0 0
lwrist 15.1045 0 0
lhand 38.3236 28.2953 0
lfingers 7.12502 0 0
lthumb 60.9865 40.9582 0
rclavicle 1.33328e-14 3.18055e-15 0
rhumerus -50.4338 -3.163 -85.5445
rradius 92.1241 0 0
rwrist -2.70993 0 0
rhand -30.672 -38.2074 0
rfingers 7.12502 0 0
rthumb -3.96015 -427.883 0
174
root 6.23069 16.0981 -25.5607 4.2958 25.765 1.29587
lfemur -23.415 24.0255 -8.98809
ltibia 40.7011 0 0
lfoot -13.6501 -3.43478 0
ltoes -6.71934 0 0
rfemur -17.2021 -4.62964 -5.30159
rtibia 50.1465 0 0
rfoot -2.96571 -26.2786 0
rtoes 42.6708 0 0
lowerback -0.0792179 -3.45063 -0.593869
upperback -0.0221491 -4.59403 -3.7604
thorax -0.205652 -2.29502 -3.50486
lowerneck -9.83572 -7.33629 -0.0155814
upperneck 2.2524 -10.0685 5.40198
head 2.73506 -4.81566 1.18995
lclavicle 4.13401e-14 3.18055e-15 0
lhumerus -51.8552 -42.6136 115.658
lradius 52.1054 0 0
lwrist 15.0518 0 0
lhand 38.6283 28.2574 0
lfingers 7.12502 0 0
lthumb 61.2444 40.6291 0
rclavicle 4.13401e-14 3.18055e-15 0
rhumerus -50.9295 -0.252929 -87.0277
rradius 92.8644 0 0
rwrist -2.26508 0 0
rhand -27.5294 -34.4811 0
rfingers 7.12502 0 0
rthumb -0.927264 -424.237 0
175
root 6.16484 16.0994 -25.5365 4.4078 24.9159 1.27176
lfemur -22.811 22.3988 -7.27781
ltibia 40.4217 0 0
lfoot -14.8203 -6.33915 0
ltoes -10.7318 0 0
rfemur -16.4303 -4.88626 -5.34653
rtibia 47.9152 0 0
rfoot -5.28681 -26.3668 0
rtoes 42.7361 0 0
lowerback -0.410683 -3.13122 -0.429321
upperback -0.0386879 -4.15888 -4.04883
thorax -0.059774 -2.07807 -3.9215
lowerneck -9.92086 -7.31861 0.326372
upperneck 2.36602 -10.0933 5.42192
head 2.77048 -4.8198 1.13264
lclavicle 6.93475e-14 3.18055e-15 0
lhumerus -52.3118 -42.859 115.689
lradius 52.071 0 0
lwrist 14.9992 0 0
lhand 38.9329 28.2195 0
lfingers 7.12502 0 0
lthumb 61.5023 40.3 0
rclavicle 6.93475e-14 3.18055e-15 0
rhumerus -51.4251 2.65715 -88.5108
rradius 93.6047 0 0
rwrist -1.82023 0 0
rhand -24.3869 -30.7548 0
rfingers 7.12502 0 0
rthumb 2.10562 -420.592 0
176
root 6.099 16.1007 -25.5124 4.5198 24.0668 1.24765
lfemur -22.207 20.772 -5.56753
ltibia 40.1424 0 0
lfoot -15.9905 -9.24353 0
ltoes -14.7442 0 0
rfemur -15.6585 -5.14288 -5.39146
rtibia 45.6839 0 0
rfoot -7.60791 -26.4549 0
rtoes 42.8013 0 0
lowerback -0.742149 -2.81182 -0.264773
upperback -0.0552267 -3.72373 -4.33727
thorax 0.086104 -1.86111 -4.33813
lowerneck -10.006 -7.30092 0.668326
upperneck 2.47963 -10.118 5.44186
head 2.80591 -4.82395 1.07534
lclavicle 9.73548e-14 3.18055e-15 0
lhumerus -52.7683 -43.1044 115.721
lradius 52.0365 0 0
lwrist 14.9465 0 0
lhand 39.2376 28.1816 0
lfingers 7.12502 0 0
lthumb 61.7602 39.9709 0
rclavicle 9.73548e-14 3.18055e-15 0
rhumerus -51.9208 5.56722 -89.994
rradius 94.345 0 0
rwrist -1.37538 0 0
rhand -21.2443 -27.0285 0
rfingers 7.12502 0 0
rthumb 5.13851 -416.946 0
177
root 6.02529 16.0771 -25.4901 4.74088 22.8764 1.46722
lfemur -20.4826 17.6972 -4.17105
ltibia 37.5254 0 0
lfoot -14.6164 -11.5964 0
ltoes -5.46897 0 0
rfemur -15.7848 -5.32303 -5.70519
rtibia 45.1194 0 0
rfoot -9.40401 -24.4769 0
rtoes 42.5627 0 0
lowerback -1.04418 -2.71713 -0.403848
upperback -0.0741157 -3.58141 -4.56696
thorax 0.241798 -1.78859 -4.51259
lowerneck -10.2998 -6.9743 0.882937
upperneck 2.54858 -9.72088 5.39437
head 2.86348 -4.61903 1.0385
lclavicle 8.82888e-14 5.45237e-15 0
lhumerus -52.8601 -42.947 115.362
lradius 52.2679 0 0
lwrist 15.9656 0 0
lhand 38.854 28.917 0
lfingers 7.12502 0 0
lthumb 61.4346 41.067 0
rclavicle 8.82888e-14 5.45237e-15 0
rhumerus -53.1078 8.9246 -90.3517
rradius 96.8129 0 0
rwrist -1.51221 0 0
rhand -15.2421 -24.3538 0
rfingers 7.12502 0 0
rthumb 10.8691 -413.34 0
178
root 5.95159 16.0536 -25.4678 4.96196 21.686 1.68679
lfemur -18.7582 14.6225 -2.77457
ltibia 34.9084 0 0
lfoot -13.2423 -13.9492 0
ltoes 3.80626 0 0
rfemur -15.9111 -5.50319 -6.01891
rtibia 44.5549 0 0
rfoot -11.2001 -22.4989 0
rtoes 42.3241 0 0
lowerback -1.34621 -2.62245 -0.542924
upperback -0.0930048 -3.43909 -4.79666
thorax 0.397491 -1.71607 -4.68706
lowerneck -10.5935 -6.64769 1.09755
upperneck 2.61754 -9.32377 5.34689
head 2.92105 -4.41412 1.00166
lclavicle 7.92228e-14 7.72419e-15 0
lhumerus -52.9519 -42.7896 115.003
lradius 52.4994 0 0
lwrist 16.9846 0 0
lhand 38.4703 29.6525 0
lfingers 7.12502 0 0
lthumb 61.109 42.1631 0
rclavicle 7.92228e-14 7.72419e-15 0
rhumerus -54.2949 12.282 -90.7095
rradius 99.2807 0 0
rwrist -1.64903 0 0
rhand -9.23987 -21.6792 0
rfingers 7.12502 0 0
rthumb 16.5997 -409.734 0
179
root 5.87788 16.03 -25.4455 5.18304 20.4956 1.90636
lfemur -17.0338 11.5477 -1.37809
ltibia 32.2914 0 0
lfoot -11.8682 -16.302 0
ltoes 13.0815 0 0
rfemur -16.0374 -5.68334 -6.33264
rtibia 43.9904 0 0
rfoot -12.9962 -20.5209 0
rtoes 42.0855 0 0
lowerback -1.64824 -2.52776 -0.681999
upperback -0.111894 -3.29677 -5.02635
thorax 0.553185 -1.64355 -4.86152
lowerneck -10.8873 -6.32107 1.31216
upperneck 2.68649 -8.92665 5.2994
head 2.97862 -4.2092 0.964822
lclavicle 7.01568e-14 9.99601e-15 0
lhumerus -53.0437 -42.6322 114.644
lradius 52.7308 0 0
lwrist 18.0037 0 0
lhand 38.0867 30.3879 0
lfingers 7.12502 0 0
lthumb 60.7834 43.2592 0
rclavicle 7.01568e-14 9.99601e-15 0
rhumerus -55.4819 15.6394 -91.0672
rradius 101.749 0 0
rwrist -1.78586 0 0
rhand -3.23766 -19.0045 0
rfingers 7.12502 0 0
rthumb 22.3303 -406.128 0
